# xmcd CD database file
#
# Track frame offsets:
#	150
#	13037
#	30722
#	49380
#	71505
#	88792
#	105977
#	121665
#	152112
#	174337
#	207192
#	231620
#	265815
#	304487
#
# Disc length: 4533 seconds
#
# Revision: 1
# Processed by: cddbd v1.5.2PL0 Copyright (c) Steve Scherf et al.
# Submitted via: CDex 1.70beta2
#
DISCID=bc11b30e
DTITLE=3B LAB.☆ - 黄昏EVOLUTION#3
DYEAR=2005
DGENRE=Rock
TTITLE0=Opening Of The Evolution.
TTITLE1=Hi-Fi
TTITLE2=嗚呼初恋　ver.1.5
TTITLE3=新しき旅立ちの歌
TTITLE4=HIGHWAYSTAR☆
TTITLE5=STIMULATION
TTITLE6=我武者羅
TTITLE7=恋の花
TTITLE8=Let's HappiecE Life!
TTITLE9=僕らの為に書いた真実の歌
TTITLE10=団塊世代
TTITLE11=everyone ～同窓会～
TTITLE12=ボーナストラック
TTITLE13=CD-Eｘｔra
EXTD=YEAR: 2005
EXTT0=
EXTT1=
EXTT2=
EXTT3=
EXTT4=
EXTT5=
EXTT6=
EXTT7=
EXTT8=
EXTT9=
EXTT10=
EXTT11=
EXTT12=
EXTT13=
PLAYORDER=
